<?xml version="1.0" standalone="no"?>
<!DOCTYPE svg PUBLIC "-//W3C//DTD SVG 20010904//EN"
 "http://www.w3.org/TR/2001/REC-SVG-20010904/DTD/svg10.dtd">
<svg version="1.0" xmlns="http://www.w3.org/2000/svg"
 width="359.000000pt" height="140.000000pt" viewBox="0 0 359.000000 140.000000"
 preserveAspectRatio="xMidYMid meet">
<metadata>
Created by potrace 1.16, written by Peter Selinger 2001-2019
</metadata>
<g transform="translate(0.000000,140.000000) scale(0.100000,-0.100000)"
fill="#000000" stroke="none">
<path d="M0 700 l0 -700 1795 0 1795 0 0 700 0 700 -1795 0 -1795 0 0 -700z
m1158 594 c19 -13 22 -24 22 -87 0 -104 -40 -1028 -46 -1055 -2 -12 -16 -27
-30 -32 -31 -12 15 -40 -552 330 -428 278 -448 294 -424 335 7 14 983 524
1002 525 3 0 16 -7 28 -16z m796 -416 c8 -13 17 -48 21 -79 l7 -56 39 21 c36
19 41 20 66 6 43 -24 59 -79 45 -158 -12 -72 -34 -110 -76 -130 -24 -12 -32
-11 -66 6 -31 15 -40 16 -44 6 -9 -23 -45 -17 -50 9 -19 92 -10 353 13 381 18
22 28 20 45 -6z m514 10 c21 -21 13 -46 -20 -69 -59 -41 -63 -67 -18 -121 41
-50 47 -86 22 -135 -40 -77 -117 -124 -150 -91 -20 20 -14 39 28 84 22 24 40
52 40 61 0 10 -16 40 -35 67 -41 58 -43 87 -12 139 39 64 113 97 145 65z
m-868 -27 c28 -54 -22 -345 -66 -382 -22 -18 -51 14 -71 80 -17 58 -33 86 -33
61 0 -25 -57 -137 -72 -143 -40 -15 -67 52 -79 201 -10 132 -1 192 31 192 26
0 40 -29 49 -103 l7 -62 22 67 c39 114 64 115 93 1 18 -71 20 -70 39 12 20 86
56 120 80 76z m217 -83 c51 -47 8 -157 -68 -173 -17 -4 -28 -12 -26 -18 6 -19
46 -20 72 -3 45 29 72 16 61 -29 -8 -32 -72 -75 -112 -75 -39 0 -82 33 -100
76 -37 89 3 218 76 247 25 10 73 -2 97 -25z m871 -4 c46 -52 14 -138 -64 -166
-19 -6 -33 -17 -31 -23 6 -18 38 -18 72 1 36 19 65 14 65 -12 0 -9 -17 -34
-39 -55 -31 -31 -46 -39 -76 -39 -48 0 -98 48 -115 109 -21 78 22 185 84 212
32 13 79 2 104 -27z m581 25 c39 -14 65 -59 56 -99 -9 -40 -57 -89 -94 -96
-18 -4 -30 -12 -28 -18 6 -19 40 -19 74 -1 36 20 63 14 63 -12 0 -44 -62 -93
-117 -93 -39 0 -69 23 -94 73 -41 80 -6 212 65 243 38 16 36 16 75 3z m249
-15 c2 -15 -7 -29 -27 -44 -39 -27 -39 -43 -1 -87 35 -39 37 -66 10 -110 -25
-41 -71 -65 -118 -61 -32 3 -37 6 -37 28 0 19 9 29 38 43 20 10 37 25 37 32 0
8 -14 36 -31 64 -29 46 -30 52 -19 85 16 51 54 78 104 74 33 -2 42 -7 44 -24z
m-457 -11 c22 -26 19 -231 -4 -266 -41 -62 -67 -15 -67 119 0 134 30 197 71
147z m-240 -17 c11 -23 12 -23 30 -5 19 19 36 23 74 19 26 -3 42 -16 48 -41 8
-31 -17 -48 -62 -42 -33 5 -41 2 -54 -18 -8 -13 -17 -54 -20 -91 -4 -38 -11
-77 -17 -89 -14 -26 -41 -21 -57 11 -17 33 -18 251 -1 268 19 19 48 14 59 -12z"/>
</g>
</svg>
